PathFileType	4	(X/Y/Z)	S01_0001_Static_markers.trc
DataRate	CameraRate	NumFrames	NumMarkers	Units	OrigDataRate	OrigDataStartFrame	OrigNumFrames
250.000000	250.000000	4	62	mm	250.000000	89	102
Frame#	Time	HEAD_ANT			R_HEAD			L_HEAD			C7			R_BACK			L_BACK			STERNUM			R_ACROMION			R_HUM_PROX			R_HUM_ANT			R_HUM_POST			R_ELBOW_LAT			R_ELBOW_MED			R_FOREARM			R_WIRST_LAT			R_WRITS_MED			R_HAND			L_ACROMION			L_HUM_PROX			L_HUM_ANT			L_HUM_POST			L_ELBOW_LAT			L_ELBOW_MED			L_FOREARM			L_WRIST_LAT			L_WIRST_MED			L_HAND			R_ILIAC			SACRUM			L_ILIAC			R_GTROCH			R_THIGH__1			R_THIGH_2			R_THIGH_3			R_THIGH_4			R_KNEE_LAT			R_KNEE_MED			R_SHANK_1			R_SHANK_2			R_SHANK_3			R_SHANK_4			R_ANKLE_LAT			R_ANKLE_MED			R_HEEL			R_FOOT_LAT			R_FOOT_MED			L_GTROCH			L_THIGH_1			L_THIGH_2			L_THIGH_3			L_THIGH_4			L_KNEE_LAT			L_KNEE_MED			L_SHANK_1			L_SHANK_2			L_SHANK_3			L_SHANK_4			L_ANKLE_LAT			L_ANKLE_MED			L_HEEL			L_FOOT_LAT			L_FOOT_MED			
		X1	Y1	Z1	X2	Y2	Z2	X3	Y3	Z3	X4	Y4	Z4	X5	Y5	Z5	X6	Y6	Z6	X7	Y7	Z7	X8	Y8	Z8	X9	Y9	Z9	X10	Y10	Z10	X11	Y11	Z11	X12	Y12	Z12	X13	Y13	Z13	X14	Y14	Z14	X15	Y15	Z15	X16	Y16	Z16	X17	Y17	Z17	X18	Y18	Z18	X19	Y19	Z19	X20	Y20	Z20	X21	Y21	Z21	X22	Y22	Z22	X23	Y23	Z23	X24	Y24	Z24	X25	Y25	Z25	X26	Y26	Z26	X27	Y27	Z27	X28	Y28	Z28	X29	Y29	Z29	X30	Y30	Z30	X31	Y31	Z31	X32	Y32	Z32	X33	Y33	Z33	X34	Y34	Z34	X35	Y35	Z35	X36	Y36	Z36	X37	Y37	Z37	X38	Y38	Z38	X39	Y39	Z39	X40	Y40	Z40	X41	Y41	Z41	X42	Y42	Z42	X43	Y43	Z43	X44	Y44	Z44	X45	Y45	Z45	X46	Y46	Z46	X47	Y47	Z47	X48	Y48	Z48	X49	Y49	Z49	X50	Y50	Z50	X51	Y51	Z51	X52	Y52	Z52	X53	Y53	Z53	X54	Y54	Z54	X55	Y55	Z55	X56	Y56	Z56	X57	Y57	Z57	X58	Y58	Z58	X59	Y59	Z59	X60	Y60	Z60	X61	Y61	Z61	X62	Y62	Z62	

90	0.356	433.9751892089844	447.1585998535156	1741.73828125	505.1889953613281	379.7450866699219	1700.39697265625	358.8541870117188	391.7916870117188	1701.072387695312	422.8471984863281	241.0397491455078	1533.381591796875	491.3233947753906	169.7725219726562	1335.968627929688	351.1448669433594	173.3828277587891	1336.799072265625	436.1943359375	420.3141784667969	1374.630615234375	594.9635009765625	307.1108093261719	1493.854370117188	701.6697998046875	263.830322265625	1351.735229492188	733.3135375976562	328.9833679199219	1275.223388671875	719.681884765625	207.1283111572266	1266.805297851562	757.1741333007812	258.787841796875	1171.00732421875	677.4860229492188	254.2373504638672	1149.2138671875	826.99560546875	353.2245788574219	999.5787963867188	819.920166015625	401.1304016113281	933.4188842773438	832.1983032226562	325.7489929199219	908.1524047851562	880.1940307617188	389.03662109375	851.4735107421875	261.3379516601562	320.9591369628906	1492.573852539062	161.0606231689453	291.9090576171875	1332.367919921875	146.128662109375	357.7970275878906	1256.266235351562	140.1586456298828	235.3725280761719	1253.32421875	113.0335311889648	287.3155517578125	1155.333740234375	181.2778778076172	256.0321655273438	1145.744018554688	67.3780517578125	391.2396850585938	985.1566772460938	93.94778442382812	440.193603515625	919.206298828125	53.54485321044922	373.2093811035156	903.9493408203125	31.53522491455078	445.1944274902344	848.05224609375	602.8447265625	321.8498229980469	1082.02001953125	431.9296875	190.6924133300781	1061.613159179688	256.7664184570312	320.5140991210938	1075.526733398438	611.841796875	266.4919128417969	942.3301391601562	615.5636596679688	274.1481018066406	663.9883422851562	621.2811279296875	331.8661804199219	674.28271484375	594.3258666992188	327.3228149414062	570.5302734375	599.9822998046875	263.3810119628906	583.4537963867188	588.1737670898438	300.9245910644531	508.8813781738281	476.933349609375	303.4412231445312	506.6116027832031	620.7939453125	239.8263549804688	353.5897521972656	606.6929321289062	295.4629821777344	332.1886596679688	592.9710693359375	292.5330810546875	246.7645263671875	602.39599609375	228.3593902587891	253.3161315917969	581.3921508789062	253.1011047363281	66.15044403076172	495.7471008300781	275.2490234375	80.75154876708984	527.50634765625	194.3103485107422	42.13274002075195	628.7293090820312	352.2904052734375	20.03422737121582	532.4774780273438	415.1750183105469	30.10456657409668	252.1360321044922	273.8482971191406	965.2691040039062	250.1696624755859	325.3528442382812	674.0416870117188	236.8772125244141	273.3351745605469	700.7869262695312	263.2449951171875	249.8161926269531	600.6103515625	269.4443969726562	312.9171752929688	595.6043090820312	281.6107177734375	270.4573669433594	513.9699096679688	389.0660400390625	274.2461853027344	501.6829223632812	254.7897796630859	250.459228515625	338.7406311035156	257.2347412109375	193.0536956787109	317.9263000488281	267.6944885253906	192.5461730957031	231.0549011230469	268.9580688476562	257.2077941894531	236.4995269775391	276.3869934082031	217.3247375488281	69.16091918945312	361.0621948242188	243.6530914306641	79.63339233398438	329.2257385253906	161.0081634521484	41.35848617553711	233.62158203125	328.1224975585938	19.18551254272461	335.71240234375	376.835693359375	27.02355194091797	
91	0.36	433.9269409179688	447.1009521484375	1741.751098632812	505.1149597167969	379.6776123046875	1700.43310546875	358.7848510742188	391.7210693359375	1701.080932617188	422.8246154785156	240.9672698974609	1533.321655273438	491.2427062988281	169.7118072509766	1335.921997070312	351.10693359375	173.3926391601562	1336.777954101562	436.1326904296875	420.2919006347656	1374.676025390625	594.9191284179688	307.0748596191406	1493.85498046875	701.5960693359375	263.819580078125	1351.747436523438	733.2537841796875	328.9784545898438	1275.2255859375	719.6266479492188	207.1312561035156	1266.791137695312	757.107177734375	258.8361206054688	1171.005004882812	677.4266357421875	254.2328796386719	1149.201538085938	826.9147338867188	353.2830200195312	999.661865234375	819.8344116210938	401.2118835449219	933.456298828125	832.1051635742188	325.815673828125	908.1503295898438	880.1253662109375	389.1851196289062	851.5049438476562	261.2934265136719	320.9275207519531	1492.565673828125	160.9949645996094	291.9068298339844	1332.390258789062	146.0783386230469	357.7939758300781	1256.2880859375	140.0808410644531	235.3760986328125	1253.322021484375	112.9545974731445	287.3894653320312	1155.283203125	181.1973876953125	256.0458068847656	1145.7265625	67.30457305908203	391.3362731933594	985.1856689453125	93.89974975585938	440.2457580566406	919.257080078125	53.5103759765625	373.2804870605469	903.9509887695312	31.4523811340332	445.291259765625	848.0823364257812	602.7974853515625	321.8616638183594	1082.02587890625	431.8724670410156	190.7255249023438	1061.620483398438	256.7151489257812	320.5317687988281	1075.49755859375	611.7516479492188	266.4870910644531	942.35009765625	615.1605834960938	274.5237121582031	664.0616455078125	621.221435546875	331.8755493164062	674.2797241210938	594.33154296875	327.3565368652344	570.559326171875	599.9467163085938	263.40234375	583.438720703125	588.1063842773438	300.9385986328125	508.8805236816406	476.9353942871094	303.4224548339844	506.6250305175781	620.7944946289062	239.8750610351562	353.6248474121094	606.6536254882812	295.4520568847656	332.2048645019531	592.9586181640625	292.5710754394531	246.7394409179688	602.3818359375	228.3324432373047	253.3354949951172	581.3642578125	253.0979614257812	66.14650726318359	495.749755859375	275.1802978515625	80.79811096191406	527.5098876953125	194.2944488525391	42.07128143310547	628.7269897460938	352.2496337890625	20.04951858520508	532.4959106445312	415.1859741210938	30.11837005615234	252.0973663330078	273.8552856445312	965.2781372070312	250.1078796386719	325.4207153320312	674.05615234375	236.8086090087891	273.3507995605469	700.776611328125	263.2041931152344	249.8722534179688	600.6231079101562	269.3719787597656	312.943359375	595.6524047851562	281.5861511230469	270.4913330078125	513.9720458984375	389.0173645019531	274.3074340820312	501.7018432617188	254.7487640380859	250.4776611328125	338.7196044921875	257.223876953125	193.0651702880859	317.9115295410156	267.6531066894531	192.5547943115234	231.0245056152344	268.9325561523438	257.1972045898438	236.5096740722656	276.3219299316406	217.3162384033203	69.17299652099609	361.0857543945312	243.7070770263672	79.62968444824219	329.2572021484375	161.0119781494141	41.35472869873047	233.6134033203125	328.1207275390625	19.18972396850586	335.7035827636719	376.8275146484375	27.0023307800293	
92	0.364	433.8471374511719	447.0286560058594	1741.765380859375	505.0510864257812	379.6166076660156	1700.43896484375	358.7157287597656	391.6523132324219	1701.089599609375	422.7408447265625	240.9660797119141	1533.383422851562	491.1948547363281	169.7043609619141	1335.859375	351.0257263183594	173.36083984375	1336.755004882812	436.0289611816406	420.2787475585938	1374.675903320312	594.8613891601562	307.0460510253906	1493.8564453125	701.528076171875	263.7514038085938	1351.741333007812	733.181640625	328.980712890625	1275.22509765625	719.5751342773438	207.0873107910156	1266.7939453125	757.0439453125	258.8091735839844	1170.991333007812	677.3468627929688	254.2716979980469	1149.19140625	826.8580932617188	353.3197326660156	999.6257934570312	819.7919311523438	401.2655029296875	933.4840087890625	832.056396484375	325.89404296875	908.1671142578125	880.0642700195312	389.2408142089844	851.5254516601562	261.2193908691406	320.8690490722656	1492.562255859375	160.9198760986328	291.8619384765625	1332.376342773438	146.0088348388672	357.7935791015625	1256.30224609375	140.0305328369141	235.3693084716797	1253.292114257812	112.8944625854492	287.3585510253906	1155.297729492188	181.1402740478516	256.0717163085938	1145.70166015625	67.26860809326172	391.3926086425781	985.203125	93.85935211181641	440.3214111328125	919.2648315429688	53.43644714355469	373.3562927246094	903.9745483398438	31.3903865814209	445.4152526855469	848.1450805664062	602.75537109375	321.9005737304688	1082.010864257812	431.8326721191406	190.7232818603516	1061.620971679688	256.6177368164062	320.4714050292969	1075.612060546875	611.710693359375	266.5067138671875	942.27490234375	615.5194702148438	274.2078552246094	663.9934692382812	621.21044921875	331.8856506347656	674.3001098632812	594.3030395507812	327.3738708496094	570.5372924804688	599.9016723632812	263.3958740234375	583.4309692382812	588.0895385742188	300.9887084960938	508.8993835449219	476.8671875	303.5415649414062	506.635986328125	620.7361450195312	239.8784332275391	353.6091918945312	606.639404296875	295.4846496582031	332.1890258789062	592.93798828125	292.5618591308594	246.7636260986328	602.390869140625	228.3691253662109	253.3590393066406	581.3582763671875	253.1064910888672	66.16431427001953	495.7564086914062	275.2757263183594	80.76982879638672	527.4790649414062	194.3089752197266	42.13150024414062	628.7212524414062	352.2690124511719	20.04459953308105	532.5010375976562	415.1927490234375	30.12332153320312	252.0471343994141	273.8856506347656	965.2998046875	250.045654296875	325.4021911621094	674.0465698242188	236.7349700927734	273.3945007324219	700.798828125	263.146728515625	249.8597717285156	600.6157836914062	269.3298645019531	312.9548034667969	595.602783203125	281.5152282714844	270.5235900878906	513.955078125	389.00439453125	274.2838439941406	501.6977844238281	254.7187652587891	250.4805755615234	338.7236022949219	257.21435546875	193.0334014892578	317.8967895507812	267.6395874023438	192.5475158691406	231.0604553222656	268.9223937988281	257.2116394042969	236.4982757568359	276.328369140625	217.3115997314453	69.17806243896484	361.0478210449219	243.7352600097656	79.63304901123047	329.2122802734375	161.0113220214844	41.38942337036133	233.5929260253906	328.1293640136719	19.16804695129395	335.7240905761719	376.8521118164062	27.01399040222168	
93	0.368	433.7866516113281	446.9816284179688	1741.756225585938	504.981689453125	379.5697631835938	1700.46337890625	358.6392822265625	391.5413513183594	1701.092041015625	422.6970825195312	240.9039459228516	1533.30810546875	491.1348571777344	169.7065124511719	1335.857543945312	350.9630126953125	173.3519897460938	1336.7158203125	436.0256958007812	420.2529602050781	1374.699951171875	594.7826538085938	306.9973754882812	1493.865356445312	701.4774780273438	263.7665710449219	1351.720092773438	733.1267700195312	328.9972534179688	1275.236206054688	719.516357421875	207.1138458251953	1266.77880859375	756.9725341796875	258.840087890625	1170.992553710938	677.2960815429688	254.2964172363281	1149.161987304688	826.781982421875	353.4251098632812	999.6754150390625	819.7034301757812	401.3346557617188	933.4840087890625	831.9802856445312	325.9522094726562	908.1594848632812	879.984375	389.3411254882812	851.5294799804688	261.16015625	320.7694091796875	1492.564086914062	160.8533477783203	291.8406677246094	1332.375610351562	145.9505004882812	357.8117980957031	1256.306396484375	139.9553375244141	235.4071502685547	1253.2783203125	112.8241958618164	287.3919677734375	1155.30029296875	181.0736083984375	256.1318969726562	1145.663452148438	67.20032501220703	391.4544982910156	985.2259521484375	93.80194091796875	440.3824768066406	919.3300170898438	53.39847946166992	373.4155883789062	904.0042114257812	31.34799957275391	445.4971313476562	848.1670532226562	602.708740234375	321.8657836914062	1082.010864257812	431.763916015625	190.7639770507812	1061.584350585938	256.5872802734375	320.6063537597656	1075.51806640625	611.6884765625	266.5369567871094	942.3509521484375	615.4573974609375	274.2276916503906	663.9795532226562	621.0907592773438	332.0309143066406	674.2546997070312	594.2420654296875	327.4163818359375	570.5117797851562	599.854736328125	263.4749145507812	583.4334106445312	588.0568237304688	300.9591979980469	508.8631591796875	476.860107421875	303.5215148925781	506.6370849609375	620.6699829101562	239.8603668212891	353.5654907226562	606.6096801757812	295.4818420410156	332.1968994140625	592.936279296875	292.5797424316406	246.7676239013672	602.3745727539062	228.3956756591797	253.375244140625	581.3662109375	253.1014556884766	66.14600372314453	495.7317199707031	275.2745666503906	80.81423187255859	527.4896850585938	194.3014526367188	42.13404083251953	628.7259521484375	352.2620544433594	20.02883148193359	532.4841918945312	415.1775512695312	30.10045433044434	252.0043029785156	273.9169311523438	965.3115234375	249.9985809326172	325.4287109375	674.0717163085938	236.6972808837891	273.34130859375	700.7852172851562	263.113525390625	249.8438262939453	600.6182250976562	269.3051452636719	312.9728088378906	595.6351928710938	281.4798278808594	270.5507507324219	513.9375	388.94091796875	274.3060302734375	501.7386779785156	255.0237579345703	250.5252532958984	338.4889221191406	257.1722106933594	193.0577697753906	317.8858642578125	267.6380920410156	192.5751190185547	231.0526123046875	268.8847045898438	257.2002868652344	236.4769439697266	276.3249206542969	217.322998046875	69.16098022460938	361.0502319335938	243.7077484130859	79.62648773193359	329.2327270507812	161.0540618896484	41.38058090209961	233.6184387207031	328.1108703613281	19.17222785949707	335.7184143066406	376.8198547363281	27.02586555480957	
